<svg xmlns="http://www.w3.org/2000/svg" viewBox="0 0 215.36 292.25">
	<defs>
		<style>
			.cls-1{fill:#edae49;}.cls-2{fill:#30638e;}.cls-3{fill:#00798c;}.cls-4{font-size:41.21px;font-family:AllStars;}.cls-5{fill:#d1495b;}.cls-6{fill:#333;}
		</style>
	</defs>
	<g id="Ebene_3" data-name="Ebene 3">
		<circle class="cls-1" cx="28.68" cy="183.26" r="18"/>
	</g><g id="Ebene_7" data-name="Ebene 7"><ellipse class="cls-1" cx="198.68" cy="169.76" rx="8" ry="10.5"/></g><g id="Ebene_8" data-name="Ebene 8"><circle class="cls-2" cx="101.68" cy="228.26" r="6"/></g><g id="Ebene_4" data-name="Ebene 4"><ellipse class="cls-2" cx="192.68" cy="104.26" rx="18" ry="17"/></g><g id="Ebene_5" data-name="Ebene 5"><ellipse class="cls-3" cx="197.68" cy="241.76" rx="12" ry="11.5"/><ellipse class="cls-3" cx="119.68" cy="22.26" rx="18" ry="17"/><text class="cls-4" transform="translate(47.33 274.91) scale(0.75 1)">Family Hub</text></g><g id="Ebene_2" data-name="Ebene 2"><ellipse class="cls-5" cx="119.68" cy="160.26" rx="32" ry="31"/></g><g id="Ebene_6" data-name="Ebene 6"><ellipse class="cls-5" cx="56.18" cy="99.26" rx="10.5" ry="9"/></g><g id="_ŽÓť_1" data-name="—ŽÓť_1"><path class="cls-6" d="M263.92,255.26A17.43,17.43,0,0,0,253.15,259l-38.23-38.22a40,40,0,0,0,12.08-20l26.32,3.41a12.55,12.55,0,1,0,1.45-6.87l-26.67-3.46c.06-.94.11-1.89.11-2.86a39.82,39.82,0,0,0-4-17.5l17.27-17.27a25,25,0,1,0-4.9-5l-16.2,16.09A39.37,39.37,0,0,0,192,151.19V81.53a25.33,25.33,0,0,0,21.85-24.79A25,25,0,1,0,185,81.46v69.66a40.94,40.94,0,0,0-26.66,13.16L133.08,139a14.83,14.83,0,1,0-4.84,5l26,26a40,40,0,0,0-5.55,27L114,207.81a25,25,0,1,0,2,6.7l34.27-10.77a40.07,40.07,0,0,0,24.41,24.91L169.3,247.2a12.49,12.49,0,1,0,10,6.44,12.55,12.55,0,0,0-3.43-4l5.61-19.26a40.39,40.39,0,0,0,6.73.57,39.78,39.78,0,0,0,21.06-6l39.32,39.32a17.5,17.5,0,1,0,15.33-9.06Zm6.21-55.4a5.5,5.5,0,1,1-7.71-1A5.49,5.49,0,0,1,270.13,199.86ZM244,123.67a18,18,0,1,1,0,25.46A18,18,0,0,1,244,123.67ZM120.26,139.29a8,8,0,1,1,8-8A8,8,0,0,1,120.26,139.29ZM96.72,235.51A18,18,0,1,1,108.5,213,18,18,0,0,1,96.72,235.51Zm74.27,29a5.5,5.5,0,1,1,2.17-7.46A5.5,5.5,0,0,1,171,264.47Zm0-207.73a18,18,0,1,1,18,18A18,18,0,0,1,171,56.74ZM188.21,224a33,33,0,1,1,33-33A33,33,0,0,1,188.21,224Zm75.71,59.27a10.5,10.5,0,1,1,10.5-10.5A10.51,10.51,0,0,1,263.92,283.26Z" transform="translate(-66.32 -31.74)"/></g></svg>
